<svg width="28" height="28" viewBox="0 0 28 28" fill="none" xmlns="http://www.w3.org/2000/svg">
<rect width="28" height="28" fill="#E5E5E5"/>
<g clip-path="url(#clip0_0_1)">
<rect x="-633" y="-733" width="1440" height="2300" fill="white"/>
<g filter="url(#filter0_d_0_1)">
<rect x="-18" y="-21" width="255" height="160" rx="4" fill="white"/>
</g>
<path d="M2.62492 9.625H25.3749M1.93695 10.2927L13.2983 25.0288C13.3808 25.1365 13.4871 25.2237 13.6087 25.2837C13.7304 25.3437 13.8643 25.3749 13.9999 25.3749C14.1356 25.3749 14.2694 25.3437 14.3911 25.2837C14.5128 25.2237 14.619 25.1365 14.7016 25.0288L26.0629 10.2927C26.1746 10.1473 26.2394 9.97129 26.2487 9.78814C26.258 9.60498 26.2113 9.42333 26.1148 9.26734L22.261 3.04664C22.1817 2.91791 22.0707 2.81159 21.9387 2.73779C21.8068 2.664 21.6581 2.62517 21.5069 2.625H6.49297C6.34175 2.62517 6.19308 2.664 6.06109 2.73779C5.9291 2.81159 5.81816 2.91791 5.73883 3.04664L1.885 9.26734C1.78856 9.42333 1.74188 9.60498 1.75116 9.78814C1.76044 9.97129 1.82524 10.1473 1.93695 10.2927V10.2927Z" stroke="#FF9D01" stroke-width="1.5" stroke-linecap="round" stroke-linejoin="round"/>
<path d="M21.875 3.5L19.25 9.625L14 2.625M6.125 3.5L8.75 9.625L14 2.625M14 24.5L8.75 9.625M14 24.5L19.25 9.625" stroke="#FF9D01" stroke-width="1.5" stroke-linecap="round" stroke-linejoin="round"/>
</g>
<rect x="-632.5" y="-732.5" width="1439" height="2299" stroke="#5E5E5E"/>
<defs>
<filter id="filter0_d_0_1" x="-113" y="-121" width="455" height="360" filterUnits="userSpaceOnUse" color-interpolation-filters="sRGB">
<feFlood flood-opacity="0" result="BackgroundImageFix"/>
<feColorMatrix in="SourceAlpha" type="matrix" values="0 0 0 0 0 0 0 0 0 0 0 0 0 0 0 0 0 0 127 0" result="hardAlpha"/>
<feOffset dx="5"/>
<feGaussianBlur stdDeviation="50"/>
<feComposite in2="hardAlpha" operator="out"/>
<feColorMatrix type="matrix" values="0 0 0 0 0.9695 0 0 0 0 0.9705 0 0 0 0 0.969988 0 0 0 0.5 0"/>
<feBlend mode="normal" in2="BackgroundImageFix" result="effect1_dropShadow_0_1"/>
<feBlend mode="normal" in="SourceGraphic" in2="effect1_dropShadow_0_1" result="shape"/>
</filter>
<clipPath id="clip0_0_1">
<rect x="-633" y="-733" width="1440" height="2300" fill="white"/>
</clipPath>
</defs>
</svg>
