<svg width="20" height="22" viewBox="0 0 20 22" fill="none" xmlns="http://www.w3.org/2000/svg">
<path d="M17 8C17 11.866 13.866 15 10 15M17 8C17 4.13401 13.866 1 10 1M17 8H3M10 15C6.13401 15 3 11.866 3 8M10 15C11.7509 13.0832 12.7468 10.5956 12.8009 8C12.7468 5.40442 11.7509 2.91685 10 1M10 15C8.2491 13.0832 7.25498 10.5956 7.20091 8C7.25498 5.40442 8.2491 2.91685 10 1M10 15V17M3 8C3 4.13401 6.13401 1 10 1M12 19C12 20.1046 11.1046 21 10 21C8.89543 21 8 20.1046 8 19M12 19C12 17.8954 11.1046 17 10 17M12 19H19M8 19C8 17.8954 8.89543 17 10 17M8 19H1" stroke="black" stroke-width="2" stroke-linecap="round" stroke-linejoin="round"/>
</svg>
