<svg width="25" height="25" viewBox="0 0 25 20" fill="none" xmlns="http://www.w3.org/2000/svg">
<path d="M1.81772 20H6.05908V9.69958L0 5.15527V18.1823C0 19.1881 0.814947 20 1.81772 20Z" fill="#4285F4"/>
<path d="M20.6016 20H24.8429C25.8487 20 26.6606 19.1851 26.6606 18.1823V5.15527L20.6016 9.69958" fill="#34A853"/>
<path d="M20.6016 1.82288V9.69969L26.6606 5.15538V2.73174C26.6606 0.483824 24.0946 -0.797672 22.2981 0.550474" fill="#FBBC04"/>
<path d="M6.05859 9.69907V1.82227L13.3295 7.27544L20.6004 1.82227V9.69907L13.3295 15.1522" fill="#EA4335"/>
<path d="M0 2.73174V5.15538L6.05908 9.69969V1.82288L4.36254 0.550474C2.56299 -0.797672 0 0.483824 0 2.73174Z" fill="#C5221F"/>
</svg>
