<svg width="25" height="25" viewBox="0 0 25 25" fill="none" xmlns="http://www.w3.org/2000/svg">
<path fill-rule="evenodd" clip-rule="evenodd" d="M12.5 0.84375C5.59375 0.84375 0 6.34958 0 13.1473C0 18.5916 3.57812 23.19 8.54688 24.8202C9.17188 24.9279 9.40625 24.5588 9.40625 24.2358C9.40625 23.9436 9.39062 22.9747 9.39062 21.9443C6.25 22.5133 5.4375 21.1907 5.1875 20.4986C5.04688 20.1449 4.4375 19.053 3.90625 18.7608C3.46875 18.5301 2.84375 17.961 3.89062 17.9457C4.875 17.9303 5.57812 18.8377 5.8125 19.2068C6.9375 21.0677 8.73438 20.5448 9.45312 20.2218C9.5625 19.4221 9.89062 18.8838 10.25 18.5762C7.46875 18.2686 4.5625 17.2074 4.5625 12.5013C4.5625 11.1633 5.04688 10.056 5.84375 9.19477C5.71875 8.88718 5.28125 7.62607 5.96875 5.93433C5.96875 5.93433 7.01562 5.61137 9.40625 7.19545C10.4062 6.91862 11.4688 6.7802 12.5313 6.7802C13.5938 6.7802 14.6563 6.91862 15.6563 7.19545C18.0469 5.59599 19.0938 5.93433 19.0938 5.93433C19.7812 7.62607 19.3438 8.88718 19.2188 9.19477C20.0156 10.056 20.5 11.148 20.5 12.5013C20.5 17.2228 17.5781 18.2686 14.7969 18.5762C15.25 18.9607 15.6406 19.6989 15.6406 20.8524C15.6406 22.498 15.625 23.8206 15.625 24.2358C15.625 24.5588 15.8594 24.9433 16.4844 24.8202C21.4219 23.19 25 18.5762 25 13.1473C25 6.34958 19.4062 0.84375 12.5 0.84375Z" fill="#1B1F23"/>
</svg>
