<svg width="25" height="25" viewBox="0 0 25 25" fill="none" xmlns="http://www.w3.org/2000/svg">
<path d="M8.00544 12.0303C8.00544 9.82122 9.79682 8.02995 12.0072 8.02995C14.2176 8.02995 16.0099 9.82122 16.0099 12.0303C16.0099 14.2393 14.2176 16.0306 12.0072 16.0306C9.79682 16.0306 8.00544 14.2393 8.00544 12.0303ZM5.84165 12.0303C5.84165 15.4335 8.60196 18.1921 12.0072 18.1921C15.4124 18.1921 18.1728 15.4335 18.1728 12.0303C18.1728 8.62707 15.4124 5.86842 12.0072 5.86842C8.60196 5.86842 5.84165 8.62707 5.84165 12.0303ZM16.976 5.6241C16.9759 5.9089 17.0603 6.18735 17.2185 6.42422C17.3767 6.66109 17.6017 6.84574 17.8649 6.95484C18.1281 7.06394 18.4178 7.09257 18.6974 7.03712C18.9769 6.98167 19.2337 6.84462 19.4353 6.64331C19.6369 6.44201 19.7742 6.18548 19.8299 5.90617C19.8856 5.62686 19.8572 5.33731 19.7482 5.07414C19.6393 4.81097 19.4547 4.586 19.2178 4.42768C18.9809 4.26935 18.7024 4.18479 18.4174 4.18467H18.4168C18.0349 4.18485 17.6686 4.33654 17.3984 4.60643C17.1282 4.87632 16.9763 5.24234 16.976 5.6241ZM7.15629 21.798C5.98564 21.7447 5.34935 21.5498 4.92651 21.3852C4.36591 21.1671 3.96593 20.9073 3.54539 20.4876C3.12485 20.0679 2.86453 19.6685 2.64725 19.1083C2.48242 18.6859 2.28742 18.0498 2.2342 16.8798C2.17599 15.6149 2.16437 15.2349 2.16437 12.0304C2.16437 8.82579 2.17695 8.44688 2.2342 7.18093C2.28752 6.01098 2.48395 5.37613 2.64725 4.95248C2.86549 4.39223 3.12543 3.99248 3.54539 3.57219C3.96535 3.15191 4.36495 2.89175 4.92651 2.67459C5.34916 2.50986 5.98564 2.31498 7.15629 2.26179C8.42195 2.20362 8.80214 2.192 12.0072 2.192C15.2123 2.192 15.5928 2.20458 16.8596 2.26179C18.0302 2.31507 18.6654 2.51139 19.0893 2.67459C19.6499 2.89175 20.0499 3.15248 20.4705 3.57219C20.891 3.99191 21.1503 4.39223 21.3686 4.95248C21.5334 5.37488 21.7284 6.01098 21.7816 7.18093C21.8398 8.44688 21.8515 8.82579 21.8515 12.0304C21.8515 15.2349 21.8398 15.6139 21.7816 16.8798C21.7283 18.0498 21.5324 18.6857 21.3686 19.1083C21.1503 19.6685 20.8904 20.0683 20.4705 20.4876C20.0505 20.9069 19.6499 21.1671 19.0893 21.3852C18.6667 21.5499 18.0302 21.7448 16.8596 21.798C15.5939 21.8562 15.2137 21.8678 12.0072 21.8678C8.8007 21.8678 8.42156 21.8562 7.15629 21.798ZM7.05687 0.102945C5.77863 0.161121 4.90518 0.363681 4.14239 0.660321C3.35241 0.966657 2.68366 1.37763 2.01538 2.04445C1.34711 2.71127 0.936946 3.38067 0.630426 4.17018C0.333608 4.93299 0.130927 5.80544 0.0727156 7.08291C0.0135441 8.3624 0 8.77146 0 12.0303C0 15.2891 0.0135441 15.6981 0.0727156 16.9776C0.130927 18.2552 0.333608 19.1276 0.630426 19.8904C0.936946 20.6794 1.34721 21.3496 2.01538 22.0161C2.68356 22.6826 3.35241 23.093 4.14239 23.4002C4.90662 23.6969 5.77863 23.8994 7.05687 23.9576C8.3378 24.0158 8.74643 24.0303 12.0072 24.0303C15.268 24.0303 15.6773 24.0167 16.9575 23.9576C18.2359 23.8994 19.1087 23.6969 19.872 23.4002C20.6615 23.093 21.3307 22.6829 21.999 22.0161C22.6673 21.3493 23.0766 20.6794 23.384 19.8904C23.6808 19.1276 23.8844 18.2551 23.9417 16.9776C23.9999 15.6972 24.0134 15.2891 24.0134 12.0303C24.0134 8.77146 23.9999 8.3624 23.9417 7.08291C23.8835 5.80535 23.6808 4.93251 23.384 4.17018C23.0766 3.38115 22.6662 2.71232 21.999 2.04445C21.3318 1.37658 20.6615 0.966657 19.873 0.660321C19.1087 0.363681 18.2358 0.160161 16.9585 0.102945C15.6782 0.0447694 15.2689 0.0302734 12.0082 0.0302734C8.74739 0.0302734 8.3378 0.0438094 7.05687 0.102945Z" fill="url(#paint0_radial_236_387)"/>
<path d="M8.00544 12.0303C8.00544 9.82122 9.79682 8.02995 12.0072 8.02995C14.2176 8.02995 16.0099 9.82122 16.0099 12.0303C16.0099 14.2393 14.2176 16.0306 12.0072 16.0306C9.79682 16.0306 8.00544 14.2393 8.00544 12.0303ZM5.84165 12.0303C5.84165 15.4335 8.60196 18.1921 12.0072 18.1921C15.4124 18.1921 18.1728 15.4335 18.1728 12.0303C18.1728 8.62707 15.4124 5.86842 12.0072 5.86842C8.60196 5.86842 5.84165 8.62707 5.84165 12.0303ZM16.976 5.6241C16.9759 5.9089 17.0603 6.18735 17.2185 6.42422C17.3767 6.66109 17.6017 6.84574 17.8649 6.95484C18.1281 7.06394 18.4178 7.09257 18.6974 7.03712C18.9769 6.98167 19.2337 6.84462 19.4353 6.64331C19.6369 6.44201 19.7742 6.18548 19.8299 5.90617C19.8856 5.62686 19.8572 5.33731 19.7482 5.07414C19.6393 4.81097 19.4547 4.586 19.2178 4.42768C18.9809 4.26935 18.7024 4.18479 18.4174 4.18467H18.4168C18.0349 4.18485 17.6686 4.33654 17.3984 4.60643C17.1282 4.87632 16.9763 5.24234 16.976 5.6241ZM7.15629 21.798C5.98564 21.7447 5.34935 21.5498 4.92651 21.3852C4.36591 21.1671 3.96593 20.9073 3.54539 20.4876C3.12485 20.0679 2.86453 19.6685 2.64725 19.1083C2.48242 18.6859 2.28742 18.0498 2.2342 16.8798C2.17599 15.6149 2.16437 15.2349 2.16437 12.0304C2.16437 8.82579 2.17695 8.44688 2.2342 7.18093C2.28752 6.01098 2.48395 5.37613 2.64725 4.95248C2.86549 4.39223 3.12543 3.99248 3.54539 3.57219C3.96535 3.15191 4.36495 2.89175 4.92651 2.67459C5.34916 2.50986 5.98564 2.31498 7.15629 2.26179C8.42195 2.20362 8.80214 2.192 12.0072 2.192C15.2123 2.192 15.5928 2.20458 16.8596 2.26179C18.0302 2.31507 18.6654 2.51139 19.0893 2.67459C19.6499 2.89175 20.0499 3.15248 20.4705 3.57219C20.891 3.99191 21.1503 4.39223 21.3686 4.95248C21.5334 5.37488 21.7284 6.01098 21.7816 7.18093C21.8398 8.44688 21.8515 8.82579 21.8515 12.0304C21.8515 15.2349 21.8398 15.6139 21.7816 16.8798C21.7283 18.0498 21.5324 18.6857 21.3686 19.1083C21.1503 19.6685 20.8904 20.0683 20.4705 20.4876C20.0505 20.9069 19.6499 21.1671 19.0893 21.3852C18.6667 21.5499 18.0302 21.7448 16.8596 21.798C15.5939 21.8562 15.2137 21.8678 12.0072 21.8678C8.8007 21.8678 8.42156 21.8562 7.15629 21.798ZM7.05687 0.102945C5.77863 0.161121 4.90518 0.363681 4.14239 0.660321C3.35241 0.966657 2.68366 1.37763 2.01538 2.04445C1.34711 2.71127 0.936946 3.38067 0.630426 4.17018C0.333608 4.93299 0.130927 5.80544 0.0727156 7.08291C0.0135441 8.3624 0 8.77146 0 12.0303C0 15.2891 0.0135441 15.6981 0.0727156 16.9776C0.130927 18.2552 0.333608 19.1276 0.630426 19.8904C0.936946 20.6794 1.34721 21.3496 2.01538 22.0161C2.68356 22.6826 3.35241 23.093 4.14239 23.4002C4.90662 23.6969 5.77863 23.8994 7.05687 23.9576C8.3378 24.0158 8.74643 24.0303 12.0072 24.0303C15.268 24.0303 15.6773 24.0167 16.9575 23.9576C18.2359 23.8994 19.1087 23.6969 19.872 23.4002C20.6615 23.093 21.3307 22.6829 21.999 22.0161C22.6673 21.3493 23.0766 20.6794 23.384 19.8904C23.6808 19.1276 23.8844 18.2551 23.9417 16.9776C23.9999 15.6972 24.0134 15.2891 24.0134 12.0303C24.0134 8.77146 23.9999 8.3624 23.9417 7.08291C23.8835 5.80535 23.6808 4.93251 23.384 4.17018C23.0766 3.38115 22.6662 2.71232 21.999 2.04445C21.3318 1.37658 20.6615 0.966657 19.873 0.660321C19.1087 0.363681 18.2358 0.160161 16.9585 0.102945C15.6782 0.0447694 15.2689 0.0302734 12.0082 0.0302734C8.74739 0.0302734 8.3378 0.0438094 7.05687 0.102945Z" fill="url(#paint1_radial_236_387)"/>
<defs>
<radialGradient id="paint0_radial_236_387" cx="0" cy="0" r="1" gradientUnits="userSpaceOnUse" gradientTransform="translate(3.19046 24.1437) scale(31.3488 31.33)">
<stop offset="0.09" stop-color="#FA8F21"/>
<stop offset="0.78" stop-color="#D82D7E"/>
</radialGradient>
<radialGradient id="paint1_radial_236_387" cx="0" cy="0" r="1" gradientUnits="userSpaceOnUse" gradientTransform="translate(14.5637 25.2188) scale(24.7072 24.6924)">
<stop offset="0.64" stop-color="#8C3AAA" stop-opacity="0"/>
<stop offset="1" stop-color="#8C3AAA"/>
</radialGradient>
</defs>
</svg>
