<svg width="25" height="25" viewBox="0 0 25 25" fill="none" xmlns="http://www.w3.org/2000/svg">
<g id="LinkedIn icon">
<path id="Vector" d="M0 1.72134C0 0.771213 0.79543 0 1.77597 0H22.254C23.2349 0 24.03 0.771213 24.03 1.72134V22.3089C24.03 23.2593 23.2349 24.03 22.254 24.03H1.77597C0.795524 24.03 0 23.2594 0 22.3092V1.72105V1.72134Z" fill="#006699"/>
<path id="Vector_2" d="M7.30196 20.1096V9.29124H3.70609V20.1096H7.30233H7.30196ZM5.50478 7.81443C6.75847 7.81443 7.53897 6.98371 7.53897 5.94554C7.5155 4.88371 6.75847 4.07617 5.52862 4.07617C4.29793 4.07617 3.49414 4.88371 3.49414 5.94544C3.49414 6.98361 4.27436 7.81434 5.48121 7.81434H5.50449L5.50478 7.81443ZM9.29232 20.1096H12.8879V14.0688C12.8879 13.7459 12.9114 13.4222 13.0064 13.1915C13.2662 12.5452 13.8578 11.8763 14.8514 11.8763C16.1522 11.8763 16.6729 12.8682 16.6729 14.3227V20.1096H20.2684V13.9067C20.2684 10.5839 18.4947 9.03762 16.1289 9.03762C14.1894 9.03762 13.3375 10.1217 12.8642 10.86H12.8882V9.29162H9.2925C9.33944 10.3065 9.29222 20.11 9.29222 20.11L9.29232 20.1096Z" fill="white"/>
</g>
</svg>
