<svg width="25" height="28" viewBox="0 0 25 28" fill="none" xmlns="http://www.w3.org/2000/svg">
<path fill-rule="evenodd" clip-rule="evenodd" d="M18.2364 10.0807C20.0981 11.4042 22.3277 12.1114 24.6119 12.1028V7.5758C24.1628 7.57704 23.715 7.52896 23.2764 7.43244V11.0389C20.9871 11.043 18.7543 10.3278 16.8934 8.99425V18.3048C16.8877 19.8325 16.4688 21.3303 15.6809 22.6393C14.893 23.9482 13.7656 25.0196 12.4182 25.7397C11.0707 26.4598 9.55355 26.8019 8.02748 26.7296C6.5014 26.6573 5.02333 26.1734 3.75 25.3292C4.9278 26.5209 6.43275 27.3362 8.07426 27.6721C9.71577 28.0079 11.42 27.849 12.9712 27.2156C14.5224 26.5822 15.8507 25.5028 16.788 24.1139C17.7253 22.7251 18.2294 21.0894 18.2364 19.4139V10.0807ZM19.8887 5.4632C18.942 4.43701 18.3611 3.1266 18.2364 1.73597V1.14746H16.9688C17.1255 2.03141 17.4665 2.8725 17.9695 3.61604C18.4726 4.35959 19.1265 4.98894 19.8887 5.4632ZM6.685 21.7453C6.24567 21.1708 5.97643 20.4845 5.90794 19.7645C5.83945 19.0445 5.97445 18.3198 6.29757 17.6727C6.6207 17.0257 7.11897 16.4824 7.73569 16.1046C8.3524 15.7268 9.06279 15.5297 9.78599 15.5358C10.1853 15.5356 10.5822 15.5967 10.963 15.7168V11.0389C10.5179 10.98 10.0689 10.9548 9.62 10.9635V14.6002C8.69281 14.3071 7.68928 14.3737 6.80899 14.7869C5.9287 15.2 5.23616 15.9293 4.86913 16.8298C4.50209 17.7303 4.48744 18.7359 4.8281 19.6467C5.16875 20.5575 5.83975 21.3067 6.70764 21.7453H6.685Z" fill="#EE1D52"/>
<path fill-rule="evenodd" clip-rule="evenodd" d="M16.8928 8.96407C18.7537 10.2976 20.9865 11.0128 23.2758 11.0088V7.40226C21.9715 7.12647 20.7865 6.44824 19.8881 5.4632C19.1259 4.98894 18.472 4.35959 17.9689 3.61604C17.4659 2.8725 17.1249 2.03141 16.9682 1.14746H13.6333V19.4139C13.6302 20.2224 13.374 21.0097 12.9006 21.6652C12.4272 22.3206 11.7605 22.8114 10.9939 23.0686C10.2274 23.3258 9.39955 23.3364 8.62663 23.0991C7.85371 22.8618 7.17452 22.3883 6.6844 21.7453C5.90766 21.3534 5.28562 20.7112 4.91863 19.9224C4.55163 19.1336 4.4611 18.2441 4.66163 17.3975C4.86216 16.551 5.34205 15.7966 6.02389 15.2562C6.70573 14.7159 7.54974 14.421 8.41975 14.4191C8.81892 14.4204 9.21566 14.4814 9.59676 14.6002V10.9635C7.95014 11.003 6.35088 11.5225 4.99531 12.4581C3.63975 13.3937 2.58686 14.7048 1.9659 16.2303C1.34493 17.7559 1.18292 19.4296 1.49975 21.0459C1.81657 22.6623 2.59845 24.1509 3.74939 25.3292C5.02299 26.1795 6.50339 26.6684 8.03289 26.7438C9.56239 26.8193 11.0837 26.4784 12.4348 25.7576C13.7859 25.0367 14.9162 23.9629 15.7052 22.6505C16.4942 21.338 16.9125 19.8361 16.9154 18.3048L16.8928 8.96407Z" fill="black"/>
<path fill-rule="evenodd" clip-rule="evenodd" d="M23.2755 7.40173V6.42843C22.0777 6.43352 20.9029 6.09863 19.8878 5.46267C20.784 6.45055 21.9699 7.12934 23.2755 7.40173ZM16.9679 1.14693C16.9679 0.973398 16.9151 0.792318 16.8925 0.618783V0.0302734H12.29V18.3042C12.286 19.3275 11.8762 20.3073 11.1506 21.0287C10.4249 21.7502 9.44269 22.1542 8.41945 22.1522C7.81695 22.1552 7.2223 22.0156 6.6841 21.7448C7.17422 22.3878 7.85341 22.8612 8.62633 23.0986C9.39925 23.3359 10.2271 23.3252 10.9936 23.0681C11.7602 22.8109 12.4269 22.3201 12.9003 21.6646C13.3737 21.0092 13.6299 20.2219 13.633 19.4134V1.14693H16.9679ZM9.59647 10.9554V9.92176C7.70259 9.66448 5.77741 10.0562 4.13468 11.0332C2.49196 12.0101 1.22855 13.5147 0.550363 15.3016C-0.127821 17.0885 -0.180793 19.0524 0.400081 20.8733C0.980954 22.6941 2.16142 24.2646 3.7491 25.3286C2.60686 24.1477 1.83331 22.6596 1.52296 21.0462C1.2126 19.4328 1.37887 17.7639 2.00145 16.2435C2.62404 14.723 3.67598 13.4168 5.02877 12.4844C6.38156 11.552 7.97662 11.0338 9.6191 10.9931L9.59647 10.9554Z" fill="#69C9D0"/>
</svg>
